<?xml version="1.0" standalone="no"?>
<!DOCTYPE svg PUBLIC "-//W3C//DTD SVG 20010904//EN"
 "http://www.w3.org/TR/2001/REC-SVG-20010904/DTD/svg10.dtd">
<svg version="1.0" xmlns="http://www.w3.org/2000/svg"
 width="512.000000pt" height="512.000000pt" viewBox="0 0 512.000000 512.000000"
 preserveAspectRatio="xMidYMid meet">
<metadata>
Created by potrace 1.14, written by Peter Selinger 2001-2017
</metadata>
<g transform="translate(0.000000,512.000000) scale(0.100000,-0.100000)"
fill="#000000" stroke="none">
<path d="M3924 4722 c-73 -12 -130 -49 -161 -105 -16 -29 -18 -74 -20 -526 -1
-271 -5 -496 -7 -499 -3 -3 -242 231 -531 520 -320 321 -539 533 -562 543 -45
22 -116 22 -164 2 -39 -17 -2353 -2324 -2397 -2390 -52 -78 -27 -201 52 -255
64 -44 126 -49 200 -18 18 8 490 472 1129 1111 l1097 1097 1100 -1100 c616
-616 1116 -1107 1134 -1116 44 -21 128 -20 169 0 107 55 142 195 72 289 -12
17 -176 183 -363 371 l-341 341 0 789 c0 846 1 822 -50 881 -42 49 -92 65
-219 66 -65 1 -127 1 -138 -1z"/>
<path d="M1474 2756 l-1081 -1083 2 -594 2 -594 25 -72 c68 -195 196 -320 398
-389 53 -18 114 -19 1735 -19 1833 0 1716 -4 1840 58 153 76 267 213 311 377
16 58 18 126 19 649 l1 584 -1083 1084 c-596 596 -1084 1083 -1085 1082 -2 0
-489 -488 -1084 -1083z m1587 -821 c23 -16 53 -50 66 -75 l24 -44 -3 -646 -3
-645 -28 -41 c-15 -22 -46 -51 -70 -65 l-42 -24 -430 -1 c-455 -1 -475 1 -532
46 -15 12 -36 35 -47 53 -21 31 -21 45 -24 673 -2 561 -1 645 13 678 24 56 70
97 135 120 8 3 214 4 457 3 l441 -2 43 -30z"/>
</g>
</svg>
